<svg width="509" height="180" viewBox="0 0 509 180" fill="none" xmlns="http://www.w3.org/2000/svg">
<path d="M20.5978 2.54051C68.0685 -11.3219 138.27 33.7188 109.578 84.8467C96.3601 108.401 54.096 121.484 31.4105 117.99C15.8031 115.585 7.78731 108.18 3.24532 93.1071C-0.473073 80.7899 -6.2953 10.3932 20.5978 2.54051ZM22.5793 178.638C79.978 189.316 78.2044 122.805 27.0479 130.646C-4.31378 136.941 -2.72368 173.933 22.5793 178.638ZM508.03 157.788H504.242C482.486 157.788 464.852 140.15 464.852 118.398V22.9835C464.852 22.4494 465.284 22.0172 465.819 22.0172H482.225C482.759 22.0172 483.191 22.4494 483.191 22.9835V118.398C483.191 130.026 492.618 139.452 504.246 139.452H508.034C508.568 139.452 509 139.885 509 140.419V156.825C509 157.359 508.568 157.792 508.034 157.792L508.03 157.788ZM345.684 109.065C345.684 111.189 345.493 113.118 345.105 114.663C344.914 115.242 344.526 115.629 344.139 115.629H272.148C271.569 115.629 271.182 116.017 271.182 116.596C271.182 130.686 281.411 143.424 298.589 143.424C312.484 143.424 319.048 137.634 323.101 129.912C323.292 129.333 323.871 128.946 324.45 128.946H341.627C342.398 128.946 342.785 129.333 342.594 129.912C337.383 149.022 320.397 159.83 298.589 159.83C269.832 159.83 251.689 139.179 251.689 109.069C251.689 78.9592 268.479 58.3083 298.589 58.3083C328.699 58.3083 345.684 78.9592 345.684 109.069V109.065ZM325.453 97.4737C324.263 86.9505 316.157 74.7108 298.589 74.7108C281.02 74.7108 272.976 88.0677 271.43 97.3392C271.096 99.3411 272.666 101.151 274.692 101.151H322.171C324.144 101.151 325.673 99.4349 325.453 97.4737ZM452.144 109.065C452.144 139.175 434.579 159.826 406.206 159.826C396.996 159.826 386.684 155.464 380.862 150.917C378.709 149.234 376.288 150.685 375.876 152.414C375.603 153.543 374.746 156.927 374.746 156.927C374.555 157.506 374.167 157.894 373.78 157.894H359.306C358.772 157.894 358.34 157.461 358.34 156.927V22.9835C358.34 22.4494 358.772 22.0172 359.306 22.0172H375.713C376.247 22.0172 376.679 22.4494 376.679 22.9835V63.9185C376.679 66.7644 380.096 67.7796 381.478 66.7603C386.252 63.2376 395.907 58.3042 406.21 58.3042C434.583 58.3042 452.148 78.9551 452.148 109.065H452.144ZM433.809 109.065C433.809 88.9932 422.808 74.7108 404.277 74.7108C386.713 74.7108 376.679 88.9932 376.679 109.065C376.679 129.137 386.717 143.42 404.277 143.42C422.808 143.42 433.809 129.137 433.809 109.065ZM251.623 63.3191C251.623 86.2859 233.288 103.85 212.25 103.85H179.588C179.054 103.85 178.621 104.283 178.621 104.817V156.927C178.621 157.461 178.189 157.894 177.655 157.894H161.249C160.714 157.894 160.282 157.461 160.282 156.927V22.9835C160.282 22.4494 160.714 22.0172 161.249 22.0172H212.25C233.288 22.0172 251.623 40.1607 251.623 63.3191ZM233.288 63.3191C233.288 50.003 222.092 38.4198 209.934 38.4198H181.92C180.097 38.4198 178.621 39.8957 178.621 41.7182V84.1454C178.621 85.9679 180.097 87.4438 181.92 87.4438H209.934C222.092 87.4438 233.288 76.4436 233.288 63.3191Z" fill="#3A3A37"/>
</svg>
